<?xml version="1.0" encoding="UTF-8" standalone="no"?>
<!DOCTYPE svg PUBLIC "-//W3C//DTD SVG 1.1//EN" "http://www.w3.org/Graphics/SVG/1.1/DTD/svg11.dtd">
<svg width="100%" height="100%" viewBox="0 0 89 25" version="1.1" xmlns="http://www.w3.org/2000/svg" xmlns:xlink="http://www.w3.org/1999/xlink" xml:space="preserve" xmlns:serif="http://www.serif.com/" style="fill-rule:evenodd;clip-rule:evenodd;stroke-linejoin:round;stroke-miterlimit:2;">
    <g transform="matrix(1,0,0,1,0.108752,11.6648)">
        <path d="M9.372,-9.223C13.548,-8.887 16.524,-8.535 18.301,-8.167C21.677,-7.446 24.061,-6.238 25.454,-4.542C26.414,-3.374 26.83,-2.078 26.702,-0.654C26.43,2.867 24.493,5.579 20.893,7.483C17.853,9.068 14.236,9.86 10.044,9.86C9.324,9.86 8.619,9.836 7.931,9.788C8.411,3.467 8.891,-2.87 9.372,-9.223ZM14.244,2.995C15.396,3.107 16.404,2.883 17.269,2.323C18.213,1.699 18.685,0.827 18.685,-0.294C18.685,-1.894 17.365,-2.814 14.724,-3.054L14.244,2.995Z" style="fill:white;fill-rule:nonzero;"/>
        <path d="M25.958,9.884C26.486,9.884 26.934,9.7 27.302,9.332C27.67,8.964 27.854,8.516 27.854,7.987C27.854,7.459 27.67,7.011 27.302,6.643C26.934,6.275 26.486,6.091 25.958,6.091C25.446,6.091 25.001,6.275 24.625,6.643C24.249,7.011 24.061,7.459 24.061,7.987C24.061,8.516 24.249,8.964 24.625,9.332C25.001,9.7 25.446,9.884 25.958,9.884Z" style="fill:white;fill-rule:nonzero;"/>
        <path d="M40.839,-9.127C43.704,-9.127 45.984,-8.335 47.68,-6.75C49.457,-5.086 50.345,-2.814 50.345,0.066C50.345,2.419 49.553,4.531 47.968,6.403C46,8.772 43.208,9.956 39.591,9.956C36.743,9.956 34.455,9.092 32.726,7.363C31.046,5.715 30.206,3.603 30.206,1.027C30.206,-1.678 31.134,-3.998 32.99,-5.934C34.991,-8.063 37.607,-9.127 40.839,-9.127ZM40.407,3.307C41.111,3.307 41.768,3.083 42.376,2.635C43.208,2.027 43.632,1.123 43.648,-0.078C43.648,-1.134 43.28,-1.926 42.544,-2.454C41.984,-2.87 41.352,-3.078 40.647,-3.078C39.895,-3.078 39.199,-2.822 38.559,-2.31C37.775,-1.67 37.383,-0.806 37.383,0.283C37.383,1.243 37.767,2.019 38.535,2.611C39.159,3.075 39.783,3.307 40.407,3.307Z" style="fill:white;fill-rule:nonzero;"/>
        <path d="M51.521,9.884C52.049,9.884 52.497,9.7 52.865,9.332C53.233,8.964 53.417,8.516 53.417,7.987C53.417,7.459 53.233,7.011 52.865,6.643C52.497,6.275 52.049,6.091 51.521,6.091C51.009,6.091 50.565,6.275 50.189,6.643C49.813,7.011 49.625,7.459 49.625,7.987C49.625,8.516 49.813,8.964 50.189,9.332C50.565,9.7 51.009,9.884 51.521,9.884Z" style="fill:white;fill-rule:nonzero;"/>
        <path d="M75.596,7.723C73.372,8.652 70.947,9.324 68.323,9.74C67.443,9.884 66.603,9.956 65.803,9.956C62.442,9.956 59.85,8.812 58.026,6.523C56.601,4.747 55.889,2.779 55.889,0.619C55.889,0.411 55.897,0.21 55.913,0.018C56.153,-2.302 57.234,-4.278 59.154,-5.91C61.73,-8.071 65.451,-9.151 70.315,-9.151C71.131,-9.151 71.987,-9.119 72.883,-9.055C72.979,-8.767 72.331,-6.846 70.939,-3.294C70.603,-3.326 70.275,-3.342 69.955,-3.342C67.955,-3.342 66.363,-2.95 65.179,-2.166C64.106,-1.462 63.57,-0.598 63.57,0.427C63.57,0.795 63.658,1.163 63.834,1.531C64.362,2.699 65.547,3.275 67.387,3.259C68.219,3.259 69.243,3.043 70.459,2.611C71.195,2.339 71.939,2.067 72.691,1.795L75.596,7.723Z" style="fill:white;fill-rule:nonzero;"/>
        <path d="M78.908,9.884C79.436,9.884 79.884,9.7 80.252,9.332C80.62,8.964 80.804,8.516 80.804,7.987C80.804,7.459 80.62,7.011 80.252,6.643C79.884,6.275 79.436,6.091 78.908,6.091C78.396,6.091 77.952,6.275 77.576,6.643C77.2,7.011 77.012,7.459 77.012,7.987C77.012,8.516 77.2,8.964 77.576,9.332C77.952,9.7 78.396,9.884 78.908,9.884Z" style="fill:white;fill-rule:nonzero;"/>
    </g>
</svg>
